<?xml version="1.0" standalone="no"?>
<!DOCTYPE svg PUBLIC "-//W3C//DTD SVG 20010904//EN"
 "http://www.w3.org/TR/2001/REC-SVG-20010904/DTD/svg10.dtd">
<svg version="1.0" xmlns="http://www.w3.org/2000/svg"
 width="200.000000pt" height="200.000000pt" viewBox="0 0 200.000000 200.000000"
 preserveAspectRatio="xMidYMid meet">

<g transform="translate(0.000000,200.000000) scale(0.100000,-0.100000)"
fill="#000000" stroke="none">
<path d="M150 1140 l0 -120 90 0 90 0 0 30 c0 30 -1 30 -55 30 -42 0 -55 3
-55 15 0 11 12 15 45 15 43 0 45 1 45 30 0 29 -2 30 -45 30 -25 0 -45 5 -45
10 0 6 22 10 49 10 43 0 49 3 53 23 8 43 1 47 -88 47 l-84 0 0 -120z"/>
<path d="M342 1248 c3 -7 22 -61 43 -120 l39 -108 41 0 40 0 38 106 c21 59 41
113 44 121 4 11 -3 14 -37 11 l-42 -3 -22 -70 -23 -70 -22 73 -22 72 -40 0
c-29 0 -40 -4 -37 -12z"/>
<path d="M658 1245 c-61 -34 -78 -130 -32 -184 l25 -30 -20 -22 c-24 -26 -36
-78 -26 -116 21 -85 137 -119 209 -62 51 40 54 133 4 186 -12 12 -16 23 -10
23 19 0 42 56 42 104 0 36 -6 52 -28 77 -24 27 -37 33 -83 36 -36 2 -63 -2
-81 -12z m101 -69 c7 -8 11 -30 9 -48 -3 -28 -7 -34 -31 -36 -16 -2 -35 2 -43
9 -17 14 -19 60 -2 77 16 16 53 15 67 -2z m7 -224 c15 -30 7 -60 -18 -73 -27
-14 -68 13 -68 46 0 53 63 73 86 27z"/>
<path d="M880 1140 l0 -120 90 0 90 0 0 35 0 35 -50 0 -50 0 0 85 0 85 -40 0
-40 0 0 -120z"/>
<path d="M1070 1247 c0 -8 18 -61 39 -118 l39 -104 40 -3 c30 -2 41 1 47 15
23 59 75 207 75 214 0 5 -17 9 -39 9 l-38 0 -18 -62 c-9 -35 -20 -67 -23 -72
-2 -5 -14 22 -26 60 -21 68 -22 69 -59 72 -27 2 -37 -1 -37 -11z"/>
<path d="M1337 1253 c-4 -3 -7 -57 -7 -120 l0 -113 90 0 90 0 0 30 c0 29 -1
30 -50 30 -38 0 -50 4 -50 15 0 11 12 15 45 15 43 0 45 1 45 30 0 29 -2 30
-45 30 -25 0 -45 5 -45 10 0 6 23 10 50 10 l50 0 0 35 0 35 -83 0 c-46 0 -87
-3 -90 -7z"/>
<path d="M931 946 c-9 -11 -9 -16 0 -22 8 -4 9 -3 5 5 -4 7 2 15 16 20 15 7
17 10 7 10 -9 1 -22 -5 -28 -13z"/>
<path d="M1087 952 c6 -4 13 -23 16 -42 l4 -35 1 37 c1 20 8 39 15 41 6 3 -1
6 -18 6 -17 0 -25 -3 -18 -7z"/>
<path d="M1291 928 c-1 -30 -5 -38 -20 -38 -11 0 -21 6 -24 13 -2 7 -3 6 -3
-3 2 -20 44 -26 52 -7 3 9 4 28 1 44 -3 23 -4 22 -6 -9z"/>
<path d="M1410 920 c0 -37 2 -40 28 -39 23 2 24 2 5 6 -18 3 -23 11 -23 34 0
32 24 40 50 17 12 -11 12 -10 1 5 -7 9 -24 17 -37 17 -21 0 -24 -5 -24 -40z"/>
<path d="M1593 920 c0 -25 2 -35 4 -22 2 12 2 32 0 45 -2 12 -4 2 -4 -23z"/>
<path d="M1719 943 c-13 -15 -12 -15 9 -2 21 13 25 12 43 -10 10 -13 19 -19
19 -13 0 15 -29 42 -44 42 -8 0 -20 -7 -27 -17z"/>
<path d="M960 913 c17 -8 11 -21 -12 -26 -20 -5 -20 -5 2 -4 26 2 35 28 12 33
-7 1 -8 0 -2 -3z"/>
<path d="M1713 900 c4 -18 45 -26 59 -12 6 6 0 8 -17 4 -17 -3 -31 1 -37 9 -8
12 -9 11 -5 -1z"/>
</g>
</svg>
